<?xml version="1.0" encoding="UTF-8"?>
<svg width="1024px" height="675px" viewBox="0 0 1024 675" version="1.1" xmlns="http://www.w3.org/2000/svg" xmlns:xlink="http://www.w3.org/1999/xlink">
    <!-- Generator: Sketch 47.1 (45422) - http://www.bohemiancoding.com/sketch -->
    <title>BG - Waves</title>
    <desc>Created with Sketch.</desc>
    <defs>
        <linearGradient x1="-4.92094975%" y1="107.516819%" x2="130.480535%" y2="-17.4465277%" id="linearGradient-1">
            <stop stop-color="#852EF6" offset="0%"></stop>
            <stop stop-color="#00FFD4" offset="100%"></stop>
        </linearGradient>
        <rect id="path-2" x="0" y="0" width="1024" height="675"></rect>
    </defs>
    <g id="Page-1" stroke="none" stroke-width="1" fill="none" fill-rule="evenodd">
        <g id="Landing-Page-New">
            <g id="Header">
                <g id="BG---Waves">
                    <mask id="mask-3" fill="white">
                        <use xlink:href="#path-2"></use>
                    </mask>
                    <use id="Mask" fill="url(#linearGradient-1)" xlink:href="#path-2"></use>
                    <g id="Waves" mask="url(#mask-3)" fill="#6482E6">
                        <g transform="translate(-881.000000, 452.000000)" id="Path-2">
                            <path d="M0,123.766799 C0,123.766799 196.426191,-87.2332008 652.15389,41.7667992 C1107.88159,170.766799 1086.28197,153.766799 1285.66284,129.266799 C1485.04371,104.766799 1490.23027,75.5782567 1589.42962,75.5782567 C1688.62897,75.5782567 1782.64175,185.266799 1863.17984,164.266799 C1943.71792,143.266799 2034.07772,41.7667992 2198.10041,41.7667992 C2362.12309,41.7667992 2474,231.266799 2474,231.266799 L2276.67415,231.266799 L1302.35976,218.266799 L23.5721224,248.266799" opacity="0.431782156"></path>
                            <path d="M1030.09822,124.188543 C1030.09822,124.188543 1241.43495,-86.8114575 1582.5,42.1885425 C1923.56505,171.188543 1843.06792,154.188543 1992.28388,129.688543 C2141.49984,105.188543 2153.99576,101.688543 2228.23621,101.688543 C2302.47666,101.688543 2364.22119,185.688543 2424.49562,164.688543 C2484.77005,143.688543 2552.39501,42.1885425 2675.14903,42.1885425 C2797.90304,42.1885425 2784.67207,140.688543 2784.67207,140.688543 L2733.95335,231.688543 L2004.7798,218.688543 L1047.73951,248.688543" opacity="0.315500453"></path>
                            <path d="M564.073993,124.188543 C564.073993,124.188543 739.799615,-86.8114575 1147.5,42.1885425 C1555.20038,171.188543 1535.87706,154.188543 1714.24598,129.688543 C1892.6149,105.188543 1897.25487,76 1986,76 C2074.74513,76 2158.85028,185.688543 2230.90078,164.688543 C2302.95128,143.688543 2383.78842,42.1885425 2530.52542,42.1885425 C2677.26241,42.1885425 2661.44645,140.688543 2661.44645,140.688543 L2600.81859,231.688543 L1729.18328,218.688543 L585.161944,248.688543" opacity="0.574784873"></path>
                        </g>
                    </g>
                </g>
            </g>
        </g>
    </g>
</svg>